# Blender v2.78 (sub 0) OBJ File: ''
# www.blender.org
mtllib wall.mtl
o Cylinder
v 0.000000 -0.500000 -5.000000
v 0.000000 0.500000 -5.000000
v 0.975452 -0.500000 -4.903926
v 0.975452 0.500000 -4.903926
v 1.913417 -0.500000 -4.619398
v 1.913417 0.500000 -4.619398
v 2.777851 -0.500000 -4.157348
v 2.777851 0.500000 -4.157348
v 3.535534 -0.500000 -3.535534
v 3.535534 0.500000 -3.535534
v 4.157348 -0.500000 -2.777851
v 4.157348 0.500000 -2.777851
v 4.619398 -0.500000 -1.913417
v 4.619398 0.500000 -1.913417
v 4.903926 -0.500000 -0.975452
v 4.903926 0.500000 -0.975452
v 5.000000 -0.500000 -0.000000
v 5.000000 0.500000 -0.000000
v 4.903926 -0.500000 0.975451
v 4.903926 0.500000 0.975451
v 4.619398 -0.500000 1.913416
v 4.619398 0.500000 1.913416
v 4.157348 -0.500000 2.777851
v 4.157348 0.500000 2.777851
v 3.535534 -0.500000 3.535534
v 3.535534 0.500000 3.535534
v 2.777851 -0.500000 4.157348
v 2.777851 0.500000 4.157348
v 1.913416 -0.500000 4.619398
v 1.913416 0.500000 4.619398
v 0.975450 -0.500000 4.903926
v 0.975450 0.500000 4.903926
v -0.000002 -0.500000 5.000000
v -0.000002 0.500000 5.000000
v -0.975454 -0.500000 4.903926
v -0.975454 0.500000 4.903926
v -1.913419 -0.500000 4.619397
v -1.913419 0.500000 4.619397
v -2.777853 -0.500000 4.157347
v -2.777853 0.500000 4.157347
v -3.535536 -0.500000 3.535532
v -3.535536 0.500000 3.535532
v -4.157350 -0.500000 2.777848
v -4.157350 0.500000 2.777848
v -4.619399 -0.500000 1.913413
v -4.619399 0.500000 1.913413
v -4.903927 -0.500000 0.975447
v -4.903927 0.500000 0.975447
v -5.000000 -0.500000 -0.000005
v -5.000000 0.500000 -0.000005
v -4.903925 -0.500000 -0.975457
v -4.903925 0.500000 -0.975457
v -4.619395 -0.500000 -1.913422
v -4.619395 0.500000 -1.913422
v -4.157345 -0.500000 -2.777856
v -4.157345 0.500000 -2.777856
v -3.535529 -0.500000 -3.535538
v -3.535529 0.500000 -3.535538
v -2.777846 -0.500000 -4.157352
v -2.777846 0.500000 -4.157352
v -1.913410 -0.500000 -4.619401
v -1.913410 0.500000 -4.619401
v -0.975444 -0.500000 -4.903928
v -0.975444 0.500000 -4.903928
v 0.000000 -0.500000 -4.500000
v 0.000000 0.500000 -4.500000
v 0.877914 -0.500000 -4.413539
v 0.877914 0.500000 -4.413539
v 1.722081 -0.500000 -4.157469
v 1.722081 0.500000 -4.157469
v 2.500072 -0.500000 -3.741625
v 2.500072 0.500000 -3.741625
v 3.181992 -0.500000 -3.181992
v 3.181992 0.500000 -3.181992
v 3.741625 -0.500000 -2.500072
v 3.741625 0.500000 -2.500072
v 4.157469 -0.500000 -1.722081
v 4.157469 0.500000 -1.722081
v 4.413539 -0.500000 -0.877915
v 4.413539 0.500000 -0.877915
v 4.500000 -0.500000 -0.000000
v 4.500000 0.500000 -0.000000
v 4.413540 -0.500000 0.877914
v 4.413540 0.500000 0.877914
v 4.157470 -0.500000 1.722081
v 4.157470 0.500000 1.722081
v 3.741625 -0.500000 2.500072
v 3.741625 0.500000 2.500072
v 3.181992 -0.500000 3.181992
v 3.181992 0.500000 3.181992
v 2.500072 -0.500000 3.741625
v 2.500072 0.500000 3.741625
v 1.722081 -0.500000 4.157470
v 1.722081 0.500000 4.157470
v 0.877913 -0.500000 4.413540
v 0.877913 0.500000 4.413540
v -0.000002 -0.500000 4.500015
v -0.000002 0.500000 4.500015
v -0.877916 -0.500000 4.413539
v -0.877916 0.500000 4.413539
v -1.722084 -0.500000 4.157468
v -1.722084 0.500000 4.157468
v -2.500074 -0.500000 3.741623
v -2.500074 0.500000 3.741623
v -3.181994 -0.500000 3.181990
v -3.181994 0.500000 3.181990
v -3.741627 -0.500000 2.500069
v -3.741627 0.500000 2.500069
v -4.157471 -0.500000 1.722078
v -4.157471 0.500000 1.722078
v -4.413540 -0.500000 0.877910
v -4.413540 0.500000 0.877910
v -4.500015 -0.500000 -0.000005
v -4.500015 0.500000 -0.000005
v -4.413538 -0.500000 -0.877920
v -4.413538 0.500000 -0.877920
v -4.157467 -0.500000 -1.722087
v -4.157467 0.500000 -1.722087
v -3.741622 -0.500000 -2.500077
v -3.741622 0.500000 -2.500077
v -3.181988 -0.500000 -3.181997
v -3.181988 0.500000 -3.181997
v -2.500066 -0.500000 -3.741629
v -2.500066 0.500000 -3.741629
v -1.722075 -0.500000 -4.157472
v -1.722075 0.500000 -4.157472
v -0.877907 -0.500000 -4.413541
v -0.877907 0.500000 -4.413541
vn 0.0980 0.0000 -0.9952
vn 0.2903 0.0000 -0.9569
vn 0.4714 0.0000 -0.8819
vn 0.6344 0.0000 -0.7730
vn 0.7730 0.0000 -0.6344
vn 0.8819 0.0000 -0.4714
vn 0.9569 0.0000 -0.2903
vn 0.9952 0.0000 -0.0980
vn 0.9952 0.0000 0.0980
vn 0.9569 0.0000 0.2903
vn 0.8819 0.0000 0.4714
vn 0.7730 0.0000 0.6344
vn 0.6344 0.0000 0.7730
vn 0.4714 0.0000 0.8819
vn 0.2903 0.0000 0.9569
vn 0.0980 0.0000 0.9952
vn -0.0980 0.0000 0.9952
vn -0.2903 0.0000 0.9569
vn -0.4714 0.0000 0.8819
vn -0.6344 0.0000 0.7730
vn -0.7730 0.0000 0.6344
vn -0.8819 0.0000 0.4714
vn -0.9569 0.0000 0.2903
vn -0.9952 0.0000 0.0980
vn -0.9952 0.0000 -0.0980
vn -0.9569 0.0000 -0.2903
vn -0.8819 0.0000 -0.4714
vn -0.7730 0.0000 -0.6344
vn -0.6344 0.0000 -0.7730
vn -0.4714 0.0000 -0.8819
vn -0.2903 0.0000 -0.9569
vn -0.0980 0.0000 -0.9952
vn 0.0000 -1.0000 0.0000
vn 0.0000 1.0000 0.0000
usemtl None
s off
f 2//1 3//1 1//1
f 4//2 5//2 3//2
f 6//3 7//3 5//3
f 8//4 9//4 7//4
f 10//5 11//5 9//5
f 12//6 13//6 11//6
f 14//7 15//7 13//7
f 16//8 17//8 15//8
f 18//9 19//9 17//9
f 20//10 21//10 19//10
f 22//11 23//11 21//11
f 24//12 25//12 23//12
f 26//13 27//13 25//13
f 28//14 29//14 27//14
f 30//15 31//15 29//15
f 32//16 33//16 31//16
f 34//17 35//17 33//17
f 36//18 37//18 35//18
f 38//19 39//19 37//19
f 40//20 41//20 39//20
f 42//21 43//21 41//21
f 44//22 45//22 43//22
f 46//23 47//23 45//23
f 48//24 49//24 47//24
f 50//25 51//25 49//25
f 52//26 53//26 51//26
f 54//27 55//27 53//27
f 56//28 57//28 55//28
f 58//29 59//29 57//29
f 60//30 61//30 59//30
f 62//31 63//31 61//31
f 64//32 1//32 63//32
f 67//17 66//17 65//17
f 69//18 68//18 67//18
f 71//19 70//19 69//19
f 73//20 72//20 71//20
f 75//21 74//21 73//21
f 77//22 76//22 75//22
f 79//23 78//23 77//23
f 81//24 80//24 79//24
f 83//25 82//25 81//25
f 85//26 84//26 83//26
f 87//27 86//27 85//27
f 89//28 88//28 87//28
f 91//29 90//29 89//29
f 93//30 92//30 91//30
f 95//31 94//31 93//31
f 97//32 96//32 95//32
f 99//1 98//1 97//1
f 101//2 100//2 99//2
f 103//3 102//3 101//3
f 105//4 104//4 103//4
f 107//5 106//5 105//5
f 109//6 108//6 107//6
f 111//7 110//7 109//7
f 113//8 112//8 111//8
f 115//9 114//9 113//9
f 117//10 116//10 115//10
f 119//11 118//11 117//11
f 121//12 120//12 119//12
f 123//13 122//13 121//13
f 125//14 124//14 123//14
f 127//15 126//15 125//15
f 65//16 128//16 127//16
f 3//33 65//33 1//33
f 4//34 66//34 68//34
f 5//33 67//33 3//33
f 6//34 68//34 70//34
f 5//33 71//33 69//33
f 6//34 72//34 8//34
f 7//33 73//33 71//33
f 8//34 74//34 10//34
f 11//33 73//33 9//33
f 12//34 74//34 76//34
f 13//33 75//33 11//33
f 14//34 76//34 78//34
f 13//33 79//33 77//33
f 14//34 80//34 16//34
f 15//33 81//33 79//33
f 16//34 82//34 18//34
f 19//33 81//33 17//33
f 20//34 82//34 84//34
f 21//33 83//33 19//33
f 22//34 84//34 86//34
f 21//33 87//33 85//33
f 22//34 88//34 24//34
f 23//33 89//33 87//33
f 24//34 90//34 26//34
f 27//33 89//33 25//33
f 28//34 90//34 92//34
f 29//33 91//33 27//33
f 30//34 92//34 94//34
f 29//33 95//33 93//33
f 30//34 96//34 32//34
f 31//33 97//33 95//33
f 32//34 98//34 34//34
f 35//33 97//33 33//33
f 36//34 98//34 100//34
f 37//33 99//33 35//33
f 38//34 100//34 102//34
f 39//33 101//33 37//33
f 38//34 104//34 40//34
f 39//33 105//33 103//33
f 40//34 106//34 42//34
f 43//33 105//33 41//33
f 44//34 106//34 108//34
f 45//33 107//33 43//33
f 46//34 108//34 110//34
f 45//33 111//33 109//33
f 46//34 112//34 48//34
f 47//33 113//33 111//33
f 48//34 114//34 50//34
f 51//33 113//33 49//33
f 52//34 114//34 116//34
f 53//33 115//33 51//33
f 54//34 116//34 118//34
f 55//33 117//33 53//33
f 54//34 120//34 56//34
f 55//33 121//33 119//33
f 56//34 122//34 58//34
f 59//33 121//33 57//33
f 60//34 122//34 124//34
f 61//33 123//33 59//33
f 62//34 124//34 126//34
f 61//33 127//33 125//33
f 62//34 128//34 64//34
f 63//33 65//33 127//33
f 64//34 66//34 2//34
f 2//1 4//1 3//1
f 4//2 6//2 5//2
f 6//3 8//3 7//3
f 8//4 10//4 9//4
f 10//5 12//5 11//5
f 12//6 14//6 13//6
f 14//7 16//7 15//7
f 16//8 18//8 17//8
f 18//9 20//9 19//9
f 20//10 22//10 21//10
f 22//11 24//11 23//11
f 24//12 26//12 25//12
f 26//13 28//13 27//13
f 28//14 30//14 29//14
f 30//15 32//15 31//15
f 32//16 34//16 33//16
f 34//17 36//17 35//17
f 36//18 38//18 37//18
f 38//19 40//19 39//19
f 40//20 42//20 41//20
f 42//21 44//21 43//21
f 44//22 46//22 45//22
f 46//23 48//23 47//23
f 48//24 50//24 49//24
f 50//25 52//25 51//25
f 52//26 54//26 53//26
f 54//27 56//27 55//27
f 56//28 58//28 57//28
f 58//29 60//29 59//29
f 60//30 62//30 61//30
f 62//31 64//31 63//31
f 64//32 2//32 1//32
f 67//17 68//17 66//17
f 69//18 70//18 68//18
f 71//19 72//19 70//19
f 73//20 74//20 72//20
f 75//21 76//21 74//21
f 77//22 78//22 76//22
f 79//23 80//23 78//23
f 81//24 82//24 80//24
f 83//25 84//25 82//25
f 85//26 86//26 84//26
f 87//27 88//27 86//27
f 89//28 90//28 88//28
f 91//29 92//29 90//29
f 93//30 94//30 92//30
f 95//31 96//31 94//31
f 97//32 98//32 96//32
f 99//1 100//1 98//1
f 101//2 102//2 100//2
f 103//3 104//3 102//3
f 105//4 106//4 104//4
f 107//5 108//5 106//5
f 109//6 110//6 108//6
f 111//7 112//7 110//7
f 113//8 114//8 112//8
f 115//9 116//9 114//9
f 117//10 118//10 116//10
f 119//11 120//11 118//11
f 121//12 122//12 120//12
f 123//13 124//13 122//13
f 125//14 126//14 124//14
f 127//15 128//15 126//15
f 65//16 66//16 128//16
f 3//33 67//33 65//33
f 4//34 2//34 66//34
f 5//33 69//33 67//33
f 6//34 4//34 68//34
f 5//33 7//33 71//33
f 6//34 70//34 72//34
f 7//33 9//33 73//33
f 8//34 72//34 74//34
f 11//33 75//33 73//33
f 12//34 10//34 74//34
f 13//33 77//33 75//33
f 14//34 12//34 76//34
f 13//33 15//33 79//33
f 14//34 78//34 80//34
f 15//33 17//33 81//33
f 16//34 80//34 82//34
f 19//33 83//33 81//33
f 20//34 18//34 82//34
f 21//33 85//33 83//33
f 22//34 20//34 84//34
f 21//33 23//33 87//33
f 22//34 86//34 88//34
f 23//33 25//33 89//33
f 24//34 88//34 90//34
f 27//33 91//33 89//33
f 28//34 26//34 90//34
f 29//33 93//33 91//33
f 30//34 28//34 92//34
f 29//33 31//33 95//33
f 30//34 94//34 96//34
f 31//33 33//33 97//33
f 32//34 96//34 98//34
f 35//33 99//33 97//33
f 36//34 34//34 98//34
f 37//33 101//33 99//33
f 38//34 36//34 100//34
f 39//33 103//33 101//33
f 38//34 102//34 104//34
f 39//33 41//33 105//33
f 40//34 104//34 106//34
f 43//33 107//33 105//33
f 44//34 42//34 106//34
f 45//33 109//33 107//33
f 46//34 44//34 108//34
f 45//33 47//33 111//33
f 46//34 110//34 112//34
f 47//33 49//33 113//33
f 48//34 112//34 114//34
f 51//33 115//33 113//33
f 52//34 50//34 114//34
f 53//33 117//33 115//33
f 54//34 52//34 116//34
f 55//33 119//33 117//33
f 54//34 118//34 120//34
f 55//33 57//33 121//33
f 56//34 120//34 122//34
f 59//33 123//33 121//33
f 60//34 58//34 122//34
f 61//33 125//33 123//33
f 62//34 60//34 124//34
f 61//33 63//33 127//33
f 62//34 126//34 128//34
f 63//33 1//33 65//33
f 64//34 128//34 66//34
